<svg xmlns="http://www.w3.org/2000/svg" xmlns:xlink="http://www.w3.org/1999/xlink" width="1500" height="480" viewBox="0 0 1500 480" font-family="Helvetica Neue,Helvetica,Arial,sans-serif" role="img" aria-label="BYO agent architecture: an agent or app running outside AgentBase calls a Public MCP Gateway with an IAM token or JWT; the gateway checks policy and calls the MCP server"><rect width="1500" height="480" fill="#FFFFFF"/><defs><marker id="a-ink" viewBox="0 0 10 10" refX="9" refY="5" markerWidth="7" markerHeight="7" orient="auto-start-reverse"><path d="M0 0L10 5L0 10z" fill="#232F3E"/></marker><marker id="a-org" viewBox="0 0 10 10" refX="9" refY="5" markerWidth="7" markerHeight="7" orient="auto-start-reverse"><path d="M0 0L10 5L0 10z" fill="#FF4C00"/></marker><marker id="a-red" viewBox="0 0 10 10" refX="9" refY="5" markerWidth="7" markerHeight="7" orient="auto-start-reverse"><path d="M0 0L10 5L0 10z" fill="#DD344C"/></marker><symbol id="mcp" viewBox="60 20 1800 1800" fill="none">
  <g stroke="#000000" stroke-width="128" stroke-linecap="round" stroke-linejoin="round">
    <path d="M193 910L920 183A258 258 0 0 1 1286 548L735 1097"/>
    <path d="M1103 365L565 903A258 258 0 0 0 930 1268L1467 729"/>
    <path d="M1286 548A258 258 0 0 1 1650 912L1015 1547Q980 1582 1015 1617L1130 1733"/>
  </g>
</symbol><symbol id="policy" viewBox="0 0 20 20" fill="none">
  <!-- Policy: tài liệu rule (xanh) + khiên check (cam) — cùng style 2 màu với bộ icon GreenNode -->
  <path d="M11.5 16.25H4.25c-0.83 0-1.5-0.67-1.5-1.5V3.25c0-0.83 0.67-1.5 1.5-1.5h6.6l3.4 3.4v2.6" stroke="#00B795" stroke-width="1.5" stroke-linecap="round" stroke-linejoin="round"/>
  <path d="M10.75 1.9v2.85c0 0.41 0.34 0.75 0.75 0.75h2.75" stroke="#00B795" stroke-width="1.5" stroke-linecap="round" stroke-linejoin="round"/>
  <path d="M5.5 7.25h4.5M5.5 10.25h3.25M5.5 13.25h2.5" stroke="#00B795" stroke-width="1.5" stroke-linecap="round"/>
  <path d="M15 9.6l3.6 1.35v2.75c0 2.25-1.6 3.6-3.6 4.3c-2-0.7-3.6-2.05-3.6-4.3v-2.75z" fill="#FFFFFF" stroke="#FF4C00" stroke-width="1.5" stroke-linejoin="round"/>
  <path d="M13.5 14l1.05 1.05l2-2.1" stroke="#FF4C00" stroke-width="1.5" stroke-linecap="round" stroke-linejoin="round"/>
</symbol><symbol id="mcp-gateway" viewBox="0 0 16 16" fill="none">
  <path fill="#5B5AA8" d="M11,0.2H5C2.9,0.2,1.2,1.9,1.2,4v11c0,0.4,0.3,0.8,0.8,0.8h12c0.4,0,0.8-0.3,0.8-0.8V4C14.8,1.9,13.1,0.2,11,0.2z M13.2,14.2H2.8V4c0-1.2,1-2.2,2.2-2.2h6c1.2,0,2.2,1,2.2,2.2V14.2z"/>
  <path fill="#FF4C00" d="M11.5,9.2l-0.4,0.1c-1.7,0.3-3,1.6-3.3,3.3L7.8,13l-0.1-0.4c-0.3-1.7-1.6-3-3.3-3.3L4,9.2l0.4-0.1c1.7-0.3,3-1.6,3.3-3.3l0.1-0.4l0.1,0.4c0.3,1.7,1.6,3,3.3,3.3L11.5,9.2z"/>
  <path fill="#FF4C00" d="M12,5.2c-0.9,0.2-1.6,0.9-1.8,1.8c-0.2-0.9-0.9-1.6-1.8-1.8c0.9-0.2,1.6-0.9,1.8-1.8C10.4,4.4,11.1,5.1,12,5.2z"/>
</symbol><symbol id="inbound-auth" viewBox="0 0 20 20" fill="none">
  <!-- Inbound Auth: cửa sổ (xanh) + mũi tên đi vào + mắt xích xác thực (cam) — style 2 màu GreenNode -->
  <path d="M16.25 10.5V4.25c0-0.83-0.67-1.5-1.5-1.5H3.25c-0.83 0-1.5 0.67-1.5 1.5v10.5c0 0.83 0.67 1.5 1.5 1.5h7.25" stroke="#00B795" stroke-width="1.5" stroke-linecap="round" stroke-linejoin="round"/>
  <path d="M1.75 6.25h14.5" stroke="#00B795" stroke-width="1.5"/>
  <circle cx="11.6" cy="4.5" r="0.75" fill="#00B795"/><circle cx="13.3" cy="4.5" r="0.75" fill="#00B795"/><circle cx="15" cy="4.5" r="0.75" fill="#00B795"/>
  <path d="M4.5 11h5.25M7.75 8.75L10 11l-2.25 2.25" stroke="#FF4C00" stroke-width="1.5" stroke-linecap="round" stroke-linejoin="round"/>
  <g stroke="#FF4C00" stroke-width="1.5" stroke-linecap="round">
    <path d="M14.1 13.1l1.3-1.3a1.9 1.9 0 0 1 2.7 2.7l-1.3 1.3"/>
    <path d="M16.1 17.1l-1.3 1.3a1.9 1.9 0 0 1 -2.7-2.7l1.3-1.3"/>
    <path d="M14.2 16.3l2.1-2.1"/>
  </g>
</symbol></defs><rect x="20" y="60" width="330" height="380" fill="none" stroke="#7D8998" stroke-width="1.5"/><rect x="20" y="60" width="26" height="26" fill="#7D8998"/><g transform="translate(20 60) scale(0.5417)"><path d="M14 36V13h13v23M27 20h8v16M11 36h27" fill="none" stroke="#FFFFFF" stroke-width="2" stroke-linecap="round" stroke-linejoin="round"/><path d="M18 18h5M18 23h5M18 28h5" fill="none" stroke="#FFFFFF" stroke-width="1.6" stroke-linecap="round" stroke-linejoin="round"/></g><text x="54" y="78" font-size="12.5" font-weight="700" fill="#232F3E" text-anchor="start">Your infrastructure (outside GreenNode)</text><rect x="75.75" y="115.75" width="56.5" height="56.5" rx="11" fill="#FFFFFF" stroke="#CFD6DD" stroke-width="1.5"/><g transform="translate(104 144) scale(1.375) translate(-104 -144)"><path d="M90 133h28v22h-28z" fill="none" stroke="#358DD5" stroke-width="2" stroke-linecap="round" stroke-linejoin="round"/><path d="M90 139h28" fill="none" stroke="#358DD5" stroke-width="1.8" stroke-linecap="round" stroke-linejoin="round"/><circle cx="94" cy="136" r="1.2" fill="#358DD5"/><circle cx="98" cy="136" r="1.2" fill="#358DD5"/><circle cx="102" cy="136" r="1.2" fill="#358DD5"/><path d="M96 145h10M96 150h16" fill="none" stroke="#358DD5" stroke-width="1.6" stroke-linecap="round" stroke-linejoin="round"/></g><text x="104" y="184" font-size="12" font-weight="700" fill="#232F3E" text-anchor="middle">Your agent / app</text><text x="104" y="199" font-size="10.5" font-weight="400" fill="#545B64" text-anchor="middle">LangGraph · script · CLI</text><rect x="75.75" y="275.75" width="56.5" height="56.5" rx="11" fill="#FFFFFF" stroke="#CFD6DD" stroke-width="1.5"/><g transform="translate(104 304) scale(1.375) translate(-104 -304)"><path d="M90 293h28v22h-28z" fill="none" stroke="#358DD5" stroke-width="2" stroke-linecap="round" stroke-linejoin="round"/><path d="M90 299h28" fill="none" stroke="#358DD5" stroke-width="1.8" stroke-linecap="round" stroke-linejoin="round"/><circle cx="94" cy="296" r="1.2" fill="#358DD5"/><circle cx="98" cy="296" r="1.2" fill="#358DD5"/><circle cx="102" cy="296" r="1.2" fill="#358DD5"/><path d="M96 305h10M96 310h16" fill="none" stroke="#358DD5" stroke-width="1.6" stroke-linecap="round" stroke-linejoin="round"/></g><text x="104" y="344" font-size="12" font-weight="700" fill="#232F3E" text-anchor="middle">Claude Desktop / Cursor</text><text x="104" y="359" font-size="10.5" font-weight="400" fill="#545B64" text-anchor="middle">via mcp-remote</text><rect x="400" y="20" width="750" height="440" fill="none" stroke="#0DB14B" stroke-width="1.5"/><rect x="400" y="20" width="26" height="26" fill="#FFFFFF" stroke="#0DB14B" stroke-width="1.5"/><circle cx="413" cy="33" r="7" fill="none" stroke="#0DB14B" stroke-width="3.2"/><circle cx="413" cy="33" r="2.6" fill="#333333"/><text x="434" y="38" font-size="12.5" font-weight="700" fill="#0A8F3C" text-anchor="start">AgentBase Platform — managed by GreenNode</text><rect x="715.75" y="35.75" width="56.5" height="56.5" rx="11" fill="#FFFFFF" stroke="#CFD6DD" stroke-width="1.5"/><g transform="translate(744 64) scale(1.375) translate(-744 -64)"><circle cx="737" cy="64" r="6.5" fill="none" stroke="#00682E" stroke-width="2.2"/><path d="M743.5 64H757M752 64v5M756.5 64v4" fill="none" stroke="#00682E" stroke-width="2.2" stroke-linecap="round" stroke-linejoin="round"/></g><text x="744" y="104" font-size="12" font-weight="700" fill="#232F3E" text-anchor="middle">Access Control</text><text x="744" y="119" font-size="10.5" font-weight="400" fill="#545B64" text-anchor="middle">MCP server secrets</text><rect x="450" y="120" width="450" height="186" fill="#F8F7FC" stroke="#5B5AA8" stroke-width="1.5"/><rect x="450" y="120" width="26" height="26" fill="#FFFFFF" stroke="#5B5AA8" stroke-width="1.5"/><use href="#mcp-gateway" xlink:href="#mcp-gateway" x="454" y="124" width="18" height="18"/><text x="484" y="138" font-size="12.5" font-weight="700" fill="#5B5AA8" text-anchor="start">MCP Gateway · Public</text><text x="890" y="138" font-size="11" font-weight="700" fill="#232F3E" text-anchor="end">MCP Connectors</text><rect x="462" y="158" width="40" height="40" rx="8" fill="#FFFFFF" stroke="#CFD6DD" stroke-width="1.2"/><use href="#inbound-auth" xlink:href="#inbound-auth" x="465" y="161" width="34" height="34"/><text x="508" y="183" font-size="11.5" font-weight="700" fill="#232F3E" text-anchor="start">Inbound Auth</text><rect x="462" y="222" width="40" height="40" rx="8" fill="#FFFFFF" stroke="#CFD6DD" stroke-width="1.2"/><use href="#policy" xlink:href="#policy" x="465" y="225" width="34" height="34"/><text x="508" y="247" font-size="11.5" font-weight="700" fill="#232F3E" text-anchor="start">Policy Group</text><polyline points="482,198 482,222" fill="none" stroke="#232F3E" stroke-width="1.6" stroke-linejoin="round" marker-end="url(#a-ink)"/><text x="462" y="298" font-size="10.5" font-weight="600" fill="#5B5AA8" text-anchor="start">Network: Public</text><rect x="620" y="146" width="270" height="56" rx="4" fill="#FFFFFF" stroke="#9AA5B1" stroke-width="1.2"/><use href="#mcp" xlink:href="#mcp" x="629" y="156" width="36" height="36"/><text x="672" y="164" font-size="12" font-weight="700" fill="#232F3E" font-family="Menlo,Consolas,monospace">tavily</text><text x="672" y="179" font-size="10.5" font-weight="400" fill="#545B64" text-anchor="start">URL: https://&lt;Tavily MCP endpoint&gt;</text><text x="672" y="193" font-size="10.5" font-weight="400" fill="#545B64" text-anchor="start">Outbound: API Key · 2LO</text><rect x="620" y="208" width="270" height="56" rx="4" fill="#FFFFFF" stroke="#9AA5B1" stroke-width="1.2"/><use href="#mcp" xlink:href="#mcp" x="629" y="218" width="36" height="36"/><text x="672" y="226" font-size="12" font-weight="700" fill="#232F3E" font-family="Menlo,Consolas,monospace">stock</text><text x="672" y="241" font-size="10.5" font-weight="400" fill="#545B64" text-anchor="start">URL: MCP runtime endpoint</text><text x="672" y="255" font-size="10.5" font-weight="400" fill="#545B64" text-anchor="start">Outbound: API Key · 2LO</text><polyline points="482,262 482,276 605,276" fill="none" stroke="#232F3E" stroke-width="1.6"/><polyline points="605,174 605,276" fill="none" stroke="#232F3E" stroke-width="1.6"/><polyline points="605,174 620,174" fill="none" stroke="#232F3E" stroke-width="1.6" stroke-linejoin="round" marker-end="url(#a-ink)"/><polyline points="605,236 620,236" fill="none" stroke="#232F3E" stroke-width="1.6" stroke-linejoin="round" marker-end="url(#a-ink)"/><rect x="995.75" y="207.75" width="56.5" height="56.5" rx="11" fill="#FFFFFF" stroke="#CFD6DD" stroke-width="1.5"/><use href="#mcp" xlink:href="#mcp" x="1002" y="214" width="44" height="44"/><text x="1024" y="276" font-size="12" font-weight="700" fill="#232F3E" text-anchor="middle">MCP server</text><text x="1024" y="291" font-size="10.5" font-weight="400" fill="#545B64" text-anchor="middle">on Agent Runtime</text><rect x="1180" y="60" width="300" height="380" fill="none" stroke="#7D8998" stroke-width="1.5" stroke-dasharray="6 4"/><rect x="1180" y="60" width="26" height="26" fill="#7D8998"/><g transform="translate(1180 60) scale(0.5417)"><circle cx="24" cy="24" r="12" fill="none" stroke="#FFFFFF" stroke-width="2"/><path d="M12 24h24" fill="none" stroke="#FFFFFF" stroke-width="2" stroke-linecap="round" stroke-linejoin="round"/><path d="M24 12a6 12 0 0 0 0 24a6 12 0 0 0 0 -24" fill="none" stroke="#FFFFFF" stroke-width="1.6" stroke-linecap="round" stroke-linejoin="round"/></g><text x="1214" y="78" font-size="12.5" font-weight="700" fill="#232F3E" text-anchor="start">Internet</text><rect x="1245.75" y="145.75" width="56.5" height="56.5" rx="11" fill="#FFFFFF" stroke="#CFD6DD" stroke-width="1.5"/><use href="#mcp" xlink:href="#mcp" x="1252" y="152" width="44" height="44"/><text x="1274" y="214" font-size="12" font-weight="700" fill="#232F3E" text-anchor="middle">MCP SaaS</text><text x="1274" y="229" font-size="10.5" font-weight="400" fill="#545B64" text-anchor="middle">Tavily · GitHub …</text><rect x="450" y="340" width="560" height="90" rx="4" fill="#FFFFFF" stroke="#7D8998" stroke-width="1"/><rect x="450" y="340" width="560" height="24" rx="4" fill="#F2F3F3"/><rect x="450" y="360" width="560" height="4" fill="#F2F3F3"/><text x="460" y="356" font-size="11" font-weight="700" fill="#232F3E" text-anchor="start">Note</text><text x="460" y="382" font-size="10.5" font-weight="400" fill="#545B64" text-anchor="start">External callers need a Public gateway. A Private gateway is only</text><text x="460" y="399" font-size="10.5" font-weight="400" fill="#545B64" text-anchor="start">reachable from the customer private network.</text><polyline points="128,144 380,144" fill="none" stroke="#232F3E" stroke-width="1.6"/><polyline points="128,304 380,304" fill="none" stroke="#232F3E" stroke-width="1.6"/><polyline points="380,144 380,304" fill="none" stroke="#232F3E" stroke-width="1.6"/><polyline points="380,178 464,178" fill="none" stroke="#232F3E" stroke-width="1.6" stroke-linejoin="round" marker-end="url(#a-ink)"/><text x="254" y="136" font-size="10.5" font-weight="600" fill="#232F3E" text-anchor="middle" style="paint-order:stroke;stroke:#FFFFFF;stroke-width:4px;stroke-linejoin:round">HTTPS · IAM token / JWT</text><polyline points="744,125 744,146" fill="none" stroke="#232F3E" stroke-width="1.6" stroke-linejoin="round" marker-end="url(#a-ink)"/><polyline points="890,174 1245,174" fill="none" stroke="#232F3E" stroke-width="1.6" stroke-linejoin="round" marker-end="url(#a-ink)"/><polyline points="890,236 995,236" fill="none" stroke="#232F3E" stroke-width="1.6" stroke-linejoin="round" marker-end="url(#a-ink)"/><circle cx="254" cy="160" r="10" fill="#232F3E" stroke="#FFFFFF" stroke-width="2"/><text x="254" y="164" font-size="11" font-weight="700" fill="#FFFFFF" text-anchor="middle">1</text><circle cx="420" cy="178" r="10" fill="#232F3E" stroke="#FFFFFF" stroke-width="2"/><text x="420" y="182" font-size="11" font-weight="700" fill="#FFFFFF" text-anchor="middle">2</text><circle cx="1110" cy="174" r="10" fill="#232F3E" stroke="#FFFFFF" stroke-width="2"/><text x="1110" y="178" font-size="11" font-weight="700" fill="#FFFFFF" text-anchor="middle">3</text><circle cx="945" cy="236" r="10" fill="#232F3E" stroke="#FFFFFF" stroke-width="2"/><text x="945" y="240" font-size="11" font-weight="700" fill="#FFFFFF" text-anchor="middle">4</text><line x1="30" y1="466" x2="64" y2="466" stroke="#232F3E" stroke-width="1.6"/><text x="72" y="470" font-size="10.5" font-weight="400" fill="#545B64" text-anchor="start">request / data path</text></svg>